<?xml version="1.0" encoding="UTF-8"?>
<svg version="1.1" xmlns="http://www.w3.org/2000/svg" width="1875" height="1875">
<path d="M0 0 C2.66715811 0.00565581 5.33430981 0.00846681 8.00147247 0.0110817 C35.40268118 0.05008879 62.64856672 0.5899502 89.93354034 3.31805801 C90.81997223 3.40527115 91.70640411 3.49248428 92.61969757 3.58234024 C177.52798518 11.99272838 261.36585463 30.76998885 471.93354034 124.31805801 C473.05720001 124.96291153 473.05720001 124.96291153 474.20355988 125.62079239 C503.51439741 142.4784262 531.75894916 161.2040663 558.93354034 181.31805801 C559.49379913 181.73200821 560.05405792 182.1459584 560.63129425 182.57245255 C564.08447089 185.12946516 567.51368415 187.71670936 570.93354034 190.31805801 C572.44754425 191.46467911 572.44754425 191.46467911 573.99213409 192.63446426 C586.74868418 202.33912338 599.12685498 212.51895126 611.30951691 222.93231583 C613.00068255 224.37534893 614.69728654 225.81180619 616.39447784 227.24774551 C623.77463176 233.5094469 630.96111807 239.93759221 638.02558136 246.55365372 C639.44756533 247.86864773 640.88247749 249.16968816 642.3239212 250.46332169 C651.40919061 258.65851502 660.05018473 267.28270146 668.68964386 275.94379044 C671.25483498 278.51437112 673.82536766 281.07952394 676.39643097 283.64422989 C678.05104878 285.2995081 679.70535659 286.95509626 681.35932159 288.61102676 C682.11675156 289.3664325 682.87418152 290.12183823 683.6545639 290.90013504 C687.73138565 294.99476733 691.64790257 299.17292981 695.41152191 303.55792618 C697.80040474 306.32053972 700.31034412 308.9672161 702.80854034 311.63055801 C707.24819328 316.40216696 711.45013176 321.29973791 715.53119659 326.38446426 C718.38315609 329.86710098 721.3419616 333.24567094 724.30854034 336.63055801 C729.91880356 343.0588495 735.24822466 349.65687465 740.45746613 356.4122963 C742.05225514 358.47133087 743.66166325 360.51834691 745.27338409 362.56415176 C757.44602589 378.04781994 768.9022781 394.00438373 779.93354034 410.31805801 C780.41146027 411.02398087 780.88938019 411.72990372 781.38178253 412.45721817 C829.15017986 483.16515238 866.32829712 559.42916683 909.93354034 693.31805801 C910.12327423 694.02456497 910.31300812 694.73107193 910.50849152 695.45898819 C931.19787985 772.57019065 941.59746068 851.96425799 941.32465363 931.76776505 C941.30756338 936.80867407 941.31775611 941.84910744 941.33497524 946.89000034 C941.43386268 981.10860956 939.80454094 1015.1511303 935.62104034 1049.13055801 C935.5168277 1049.99875168 935.41261505 1050.86694534 935.30524445 1051.76144791 C924.73704509 1139.55720688 901.70867022 1225.44852332 848.93354034 1346.31805801 C848.61643097 1346.97076675 848.29932159 1347.62347549 847.97260284 1348.29596329 C839.66019494 1365.39410173 831.02556771 1382.22223555 821.46723175 1398.66522598 C819.91954021 1401.34227411 818.39767114 1404.03249758 816.88275909 1406.72821426 C806.95077321 1424.37525361 796.0161435 1441.27523229 784.80854034 1458.13055801 C784.34522308 1458.82830338 783.88190582 1459.52604874 783.40454865 1460.2449379 C777.09469765 1469.73722868 770.62292094 1479.08932314 763.93354034 1488.31805801 C763.30061066 1489.19180069 762.66768097 1490.06554337 762.01557159 1490.96576309 C744.84891342 1514.55783569 726.59639703 1537.4672025 706.96869659 1559.06805801 C705.15976492 1561.06795177 703.38462234 1563.09075234 701.62104034 1565.13055801 C694.5959024 1573.18496036 687.32607113 1581.01867059 679.70697784 1588.51337051 C677.96693762 1590.28407224 676.35421551 1592.1149716 674.74604034 1594.00555801 C667.76922643 1602.1025026 660.03707276 1609.66811367 651.89057159 1616.57977676 C649.46901046 1618.7306644 647.20979239 1621.01417317 644.93354034 1623.31805801 C641.42177484 1626.86723958 637.84345134 1630.23774259 634.05072784 1633.48212051 C631.52754579 1635.67011971 629.07799515 1637.93098914 626.62104034 1640.19305801 C622.15831202 1644.26345857 617.57096034 1648.11982711 612.87104034 1651.91180801 C609.56999365 1654.61585691 606.34618917 1657.39950278 603.12104034 1660.19305801 C596.8537228 1665.59941934 590.41894984 1670.74919714 583.87299347 1675.81268692 C581.75619782 1677.45570831 579.64915147 1679.1107431 577.54291534 1680.76727676 C569.11942805 1687.37995681 560.6292298 1693.84020082 551.85053253 1699.97381973 C549.73826461 1701.45498977 547.63662498 1702.95059011 545.53510284 1704.44696426 C506.26439102 1732.30908667 464.92489632 1756.67050802 421.93354034 1778.31805801 C421.29394379 1778.64074661 420.65434723 1778.96343521 419.99536896 1779.29590225 C348.24187754 1815.45197974 271.48490673 1841.11614158 100.80854034 1871.56805801 C100.0770578 1871.64528091 99.34557526 1871.72250381 98.59192657 1871.8020668 C93.04465831 1872.37920286 87.49197437 1872.86224539 81.93354034 1873.31805801 C80.4021492 1873.44886261 80.4021492 1873.44886261 78.83982086 1873.58230972 C56.00299969 1875.48097584 33.21713406 1875.66156189 10.3136673 1875.63373184 C6.20483141 1875.62911917 2.09629291 1875.63597214 -2.01250458 1875.65423965 C-30.16220793 1875.77805184 -58.02725074 1874.86798016 -86.06645966 1872.31805801 C-87.21915344 1872.21337204 -88.37184723 1872.10868607 -89.55947113 1872.00082779 C-95.38748298 1871.45238017 -101.19666171 1870.80227211 -107.00395966 1870.06805801 C-107.83847656 1869.9654567 -108.67299347 1869.86285538 -109.53279877 1869.75714493 C-171.6614913 1862.09392222 -232.55039731 1848.65563254 -291.98412323 1829.0050087 C-293.94904175 1828.3567935 -295.91577381 1827.71448828 -297.88335419 1827.07440567 C-356.61069375 1807.88168225 -414.10660731 1781.60188441 -467.18169403 1750.02801895 C-469.97357574 1748.37311547 -472.77557251 1746.73706413 -475.58208466 1745.10712051 C-494.95431613 1733.82666839 -513.89205803 1721.87448859 -532.07036591 1708.74921036 C-534.13053291 1707.272119 -536.20513113 1705.817738 -538.28520966 1704.36883926 C-548.43249883 1697.29480189 -558.30575451 1689.91551575 -568.06645966 1682.31805801 C-568.70245087 1681.82386368 -569.33844208 1681.32966934 -569.99370575 1680.82049942 C-580.59787617 1672.56972773 -591.01076615 1664.10531659 -601.23955536 1655.39300919 C-604.55231011 1652.57675227 -607.91327831 1649.83763408 -611.31645966 1647.13055801 C-617.04055676 1642.47920531 -622.3665706 1637.42946745 -627.70220184 1632.34076309 C-631.33543748 1628.87624422 -635.00335317 1625.46894635 -638.75688934 1622.1347084 C-643.76777859 1617.63253348 -648.57185675 1612.95782471 -653.32817841 1608.18915176 C-654.16307297 1607.35521393 -654.99796753 1606.52127609 -655.85816193 1605.66206741 C-657.60631246 1603.91459175 -659.35322351 1602.16587529 -661.09893036 1600.4159584 C-663.75429925 1597.75521774 -666.41498583 1595.09987871 -669.07622528 1592.44501114 C-670.78553047 1590.73504531 -672.49452552 1589.02476939 -674.20317841 1587.31415176 C-675.38154518 1586.13882133 -675.38154518 1586.13882133 -676.58371735 1584.93974686 C-680.73219759 1580.77378452 -684.72660138 1576.53111769 -688.55460358 1572.0680275 C-690.93911658 1569.30795989 -693.44654339 1566.66540315 -695.94145966 1564.00555801 C-700.38111259 1559.23394906 -704.58305107 1554.33637811 -708.66411591 1549.25165176 C-711.51607173 1545.76901953 -714.47478967 1542.39036087 -717.44145966 1539.00555801 C-723.12011394 1532.50199753 -728.51929205 1525.8239145 -733.78423309 1518.9826088 C-735.01050211 1517.39070053 -736.24531486 1515.80538459 -737.48052216 1514.22040176 C-761.71285554 1483.00252601 -783.92514268 1450.31879973 -804.06645966 1416.31805801 C-804.67731415 1415.28713028 -805.28816864 1414.25620255 -805.91753387 1413.19403458 C-814.67514531 1398.35054887 -822.86454048 1383.28277246 -830.71050262 1367.94012833 C-832.43986776 1364.59598329 -834.25068084 1361.30352789 -836.06645966 1358.00555801 C-875.28808079 1284.56758539 -900.94080889 1201.96300695 -934.38451767 941.12322998 C-934.37885816 938.45775416 -934.3760497 935.79228474 -934.37343597 933.12680435 C-934.33616135 906.94967348 -933.91781372 880.90029365 -931.31645966 854.83191299 C-931.05736366 852.22659401 -930.80940742 849.62036424 -930.56255341 847.0138588 C-926.3986959 803.64349807 -919.22021367 760.68387309 -909.06645966 718.31805801 C-908.7934906 717.17618027 -908.7934906 717.17618027 -908.51500702 716.01123428 C-892.20234438 648.01474353 -867.80288213 582.5585383 -836.84380341 519.91962051 C-835.31143834 516.81902651 -833.79576274 513.71059645 -832.28520966 510.59930801 C-826.06927326 497.87149697 -819.14267996 485.58417759 -812.06645966 473.31805801 C-811.49878876 472.32725235 -810.93111786 471.33644669 -810.34624481 470.31561661 C-787.66067958 430.72959358 -762.16147443 392.31421515 -733.3491745 356.90057755 C-731.54883357 354.6794489 -729.77815532 352.43509431 -728.00395966 350.19305801 C-724.48583843 345.79175698 -720.8546369 341.49278023 -717.200737 337.20428848 C-714.28977739 333.78323315 -711.44275802 330.32001358 -708.62895966 326.81805801 C-704.76255798 322.06314752 -700.68117098 317.55144157 -696.49053192 313.08368301 C-693.81261326 310.22723644 -691.19142957 307.33459787 -688.62114716 304.38055801 C-677.96987937 292.15353 -666.515942 280.66595642 -655.06645966 269.19305801 C-654.48255463 268.60656479 -653.8986496 268.02007156 -653.29705048 267.41580582 C-647.62303962 261.72196203 -641.96629463 256.07215574 -635.84624481 250.85272598 C-632.71782184 248.15515852 -629.75142974 245.28419384 -626.75395966 242.44305801 C-621.56021636 237.55406942 -616.25623731 232.91552491 -610.67974091 228.46258926 C-607.86226486 226.15049009 -605.18381475 223.72552236 -602.50395966 221.25555801 C-597.53415895 216.69288788 -592.38414538 212.46600679 -587.06645966 208.31805801 C-585.47588363 207.06360371 -583.88531866 205.80913537 -582.29497528 204.55438614 C-579.88640643 202.65746808 -577.47167893 200.7684569 -575.05718231 198.87909317 C-572.95641556 197.23176638 -570.86106948 195.57768448 -568.76567841 193.92352676 C-559.51907096 186.64744156 -550.12349105 179.6732787 -540.450737 172.97528458 C-537.8104991 171.14014891 -535.18236758 169.28838998 -532.55474091 167.43524551 C-520.6041097 159.02781171 -508.51871456 150.9607949 -496.06645966 143.31805801 C-495.02892548 142.67755508 -493.9913913 142.03705215 -492.92241669 141.37714005 C-468.87733404 126.54893422 -444.3808097 112.75689636 -419.20610809 99.92157364 C-416.35454059 98.46518986 -413.51062058 96.99496586 -410.66802216 95.52118301 C-353.04618575 65.89378309 -290.75368047 44.27724301 -228.06645966 28.31805801 C-226.91980835 28.02511856 -226.91980835 28.02511856 -225.74999237 27.72626114 C-181.31359632 16.40290955 -136.06310677 8.67432406 -90.44145966 4.13055801 C-89.65977417 4.05156265 -88.87808868 3.97256729 -88.07271576 3.89117813 C-58.72853946 0.96470865 -29.47247818 -0.0635679 0 0 Z " fill="#CF152D" transform="translate(934.0664596557617,-0.3180580139160156)"/>
<path d="M0 0 C61.38 0 122.76 0 186 0 C186.02187378 22.8632959 186.02187378 22.8632959 186.04418945 46.18847656 C186.07681457 78.82827616 186.11331242 111.46806532 186.15898132 144.10784912 C186.15997689 144.82013019 186.16097246 145.53241127 186.16199819 146.26627662 C186.18366266 161.75044009 186.20598578 177.23460254 186.22898628 192.71876408 C186.24026364 200.31348577 186.25139563 207.90820767 186.26245117 215.50292969 C186.26355374 216.25864852 186.2646563 217.01436736 186.26579228 217.79298676 C186.30138598 242.23618705 186.3274024 266.67938598 186.34838969 291.12260281 C186.37002908 316.26586108 186.40145549 341.40908894 186.44499113 366.55231928 C186.45115231 370.11320526 186.45720297 373.67409143 186.46318626 377.23497772 C186.46495759 378.28610662 186.46495759 378.28610662 186.46676469 379.35847045 C186.48540068 390.58532525 186.49388553 401.81216528 186.49846124 413.03903365 C186.50329528 424.35812492 186.51932882 435.67714979 186.54566566 446.99621537 C186.55958715 453.11601442 186.56888683 459.23572157 186.56500816 465.35553741 C186.54504142 505.2147425 188.14980371 543.84570983 201 582 C201.33354492 583.022146 201.33354492 583.022146 201.67382812 584.06494141 C209.34188866 607.33807737 222.1097384 627.4403073 239 645 C239.61875 645.69351563 240.2375 646.38703125 240.875 647.1015625 C263.64768447 671.80585859 298.46991766 682.26867866 330 690 C329.67427002 689.4644751 329.34854004 688.9289502 329.01293945 688.37719727 C296.42259984 634.57158686 275.96894646 576.88543914 271 514 C270.88914062 512.70707031 270.77828125 511.41414063 270.6640625 510.08203125 C263.66173009 417.85098948 289.8630796 326.91799986 354 243 C356.28878471 240.36698207 358.61173301 237.77541699 360.97265625 235.20703125 C362.75041414 233.27170715 364.47576252 231.30596984 366.1875 229.3125 C374.19843927 220.14649507 382.39691794 211.09475432 391.58984375 203.09765625 C394.19730636 200.82827631 396.71897605 198.47918385 399.25 196.125 C405.02272307 190.87263507 411.09551792 186.08211978 417.27978516 181.33056641 C418.87921134 180.09342864 420.46183948 178.83465685 422.04296875 177.57421875 C454.46544197 151.94662349 491.9390719 132.1616453 530.25 117 C530.95355621 116.72028351 531.65711243 116.44056702 532.38198853 116.15237427 C534.42365169 115.34398259 536.46878275 114.54517624 538.515625 113.75 C539.69415039 113.29109375 540.87267578 112.8321875 542.08691406 112.359375 C546.95809455 110.57427379 551.98454079 109.30953579 557 108 C557.5599114 116.49188378 557.98415861 124.97592202 558.24349213 133.48177528 C558.36809526 137.43398846 558.53623532 141.37348319 558.81054688 145.31835938 C560.53172718 170.72666197 560.53172718 170.72666197 554.71392822 177.76611328 C549.03389052 182.37073831 542.75325225 185.18570619 535.96296692 187.77734375 C531.58030089 189.58583306 527.77558644 192.08372855 523.875 194.75 C522.52272573 195.64152105 521.16994283 196.53227161 519.81640625 197.421875 C466.86485367 232.99932634 422.52176286 279.99530282 394.99023438 337.92041016 C394.31661548 339.33507627 393.63531942 340.7461067 392.94726562 342.15380859 C374.72336462 379.55861079 363.99999972 422.91551628 363.796875 464.5546875 C363.78986069 465.52619247 363.78284637 466.49769745 363.77561951 467.49864197 C363.75819723 470.62414234 363.75176509 473.74945281 363.75 476.875 C363.74932526 477.94624115 363.74865051 479.0174823 363.74795532 480.1211853 C363.76509302 497.27377691 364.37156715 514.02160597 367 531 C367.17160645 532.11455566 367.34321289 533.22911133 367.52001953 534.37744141 C380.49791323 615.68933839 420.85555132 693.26702894 484 747 C484.89847656 747.78761719 485.79695313 748.57523438 486.72265625 749.38671875 C531.40145354 788.27758094 584.70592413 812.20865041 641 829 C640.41928818 839.53620481 638.34474248 849.83135156 636.4375 860.1875 C636.1043762 862.01619567 635.7716903 863.84497117 635.43945312 865.67382812 C634.63134864 870.11682201 633.81732274 874.55869305 633 879 C623.48921695 878.48775967 614.30258847 876.88720551 605 874.9375 C604.26144775 874.78416199 603.52289551 874.63082397 602.76196289 874.47283936 C587.95008339 871.37928433 573.43576694 867.55630229 559 863 C557.39366699 862.49412354 557.39366699 862.49412354 555.75488281 861.97802734 C506.07059793 846.08297902 459.50430798 820.84271127 419 788 C418.04996094 787.24332031 417.09992188 786.48664062 416.12109375 785.70703125 C410.16856397 780.92299238 404.50653797 775.88877989 398.9140625 770.6953125 C396.24067473 768.222608 393.53463167 765.79373619 390.8125 763.375 C378.33002154 752.15277177 378.33002154 752.15277177 375.75561523 747.98583984 C373.11148348 744.10824207 371.21944376 742.270518 366.54760742 741.23413086 C362.97105975 740.87827645 359.39411281 740.80008567 355.80163574 740.77133179 C351.75442698 740.7348135 347.71213354 740.56373054 343.66796875 740.41015625 C342.85031036 740.38226517 342.03265198 740.35437408 341.19021606 740.32563782 C278.89135124 738.02152873 211.54607127 715.78648699 165.2578125 673.0703125 C163.23524746 671.21571134 161.16516016 669.44964839 159.0625 667.6875 C149.47615701 659.29703883 141.4636859 649.27417863 134 639 C132.83404297 637.41251953 132.83404297 637.41251953 131.64453125 635.79296875 C117.88993947 616.45692624 108.08483583 594.55565038 101 572 C100.71189453 571.09540039 100.42378906 570.19080078 100.12695312 569.25878906 C96.63694552 558.08665884 94.2450277 546.77773247 92.25 535.25 C91.95174316 533.55870972 91.95174316 533.55870972 91.64746094 531.83325195 C87.4290976 505.86282209 87.7147643 479.66691038 87.76786876 453.4452064 C87.77661307 448.01548347 87.77357544 442.58576439 87.77206421 437.15603638 C87.77102221 427.77868878 87.77722654 418.4013693 87.78853989 409.02402878 C87.80488574 395.46644727 87.81001212 381.90887917 87.81251587 368.35128887 C87.81687882 346.34795443 87.83014967 324.34463493 87.84912109 302.34130859 C87.86751631 280.98388678 87.88167804 259.62647081 87.89013672 238.26904297 C87.89066217 236.94964774 87.89118761 235.63025252 87.89172898 234.27087562 C87.89433931 227.6509845 87.89686666 221.03109336 87.89935279 214.41120219 C87.92004163 159.60745485 87.95688767 104.80373519 88 50 C58.96 50 29.92 50 0 50 C0 33.5 0 17 0 0 Z " fill="#FFFFFF" transform="translate(433,498)"/>
<path d="M0 0 C1.27149902 0.00060425 2.54299805 0.0012085 3.85302734 0.00183105 C23.17011085 0.02676496 42.32621244 0.30478849 61.5625 2.1875 C63.50479492 2.3728833 63.50479492 2.3728833 65.48632812 2.56201172 C126.71432775 8.55293001 184.38272341 26.27716561 239.5625 53.1875 C239.63766846 52.6298999 239.71283691 52.0722998 239.7902832 51.49780273 C241.35711815 39.96859772 243.13719334 28.56823682 245.5625 17.1875 C255.37468649 18.58861494 265.08902525 20.37169502 274.81420898 22.27416992 C277.28356204 22.75655632 279.75402211 23.23296397 282.22460938 23.70898438 C283.79954794 24.01527155 285.37442036 24.32189915 286.94921875 24.62890625 C287.68557053 24.77058731 288.4219223 24.91226837 289.18058777 25.0582428 C294.33278163 26.07264082 294.33278163 26.07264082 296.5625 27.1875 C295.98464501 36.53378679 294.59472185 45.66996941 292.98632812 54.88256836 C292.72135467 56.42292818 292.4568363 57.96336635 292.19273376 59.50387573 C291.48045242 63.6508745 290.76182801 67.7967507 290.04195213 71.94243693 C289.28737523 76.29429255 288.53861894 80.6471496 287.78918457 84.99989319 C286.531624 92.29910048 285.27033795 99.59765545 284.00634766 106.89575195 C282.22430152 117.18505561 280.44894238 127.47550472 278.67494678 137.76619899 C277.29494388 145.77012603 275.91334198 153.77377721 274.53125 161.77734375 C274.3833433 162.63385804 274.23543659 163.49037233 274.08304787 164.3728416 C273.23305078 169.29421399 272.38220523 174.21543848 271.53015327 179.13645554 C271.27233985 180.62594235 271.01474429 182.1154669 270.75738335 183.60503197 C270.40590137 185.6390141 270.0535902 187.67285087 269.7010498 189.70664978 C269.50416313 190.84422698 269.30727646 191.98180418 269.10442352 193.15385342 C268.62460391 195.83984703 268.1096655 198.51451952 267.5625 201.1875 C240.87323537 196.28705204 240.87323537 196.28705204 231.5 194.4375 C230.37464844 194.21578125 229.24929688 193.9940625 228.08984375 193.765625 C225.5625 193.1875 225.5625 193.1875 223.5625 192.1875 C223.1394043 190.34008789 223.1394043 190.34008789 222.88671875 187.91015625 C222.78407715 187.01345215 222.68143555 186.11674805 222.57568359 185.19287109 C222.41447021 183.7361499 222.41447021 183.7361499 222.25 182.25 C218.50311602 152.49137204 206.39169916 125.94057493 185.5625 104.1875 C184.59702513 103.00579898 183.6381236 101.81868077 182.6875 100.625 C178.57176032 95.81205852 173.56324919 92.03423015 168.5625 88.1875 C168.04155762 87.7862793 167.52061523 87.38505859 166.98388672 86.97167969 C134.59708837 62.28201628 96.35116966 51.83483119 56.31640625 48.57421875 C54.6845802 48.43831689 53.05278466 48.30204823 51.42102051 48.16540527 C47.46851862 47.83521507 43.51563943 47.50996381 39.5625 47.1875 C39.56325944 47.93150956 39.56401888 48.67551912 39.56480134 49.44207442 C39.60967809 93.65958123 39.64393378 137.87708554 39.66463066 182.09461061 C39.6671317 187.41854253 39.66972038 192.7424744 39.67236328 198.06640625 C39.67315021 199.65607649 39.67315021 199.65607649 39.67395304 201.27786128 C39.68262634 218.37773033 39.69837914 235.47758577 39.71680559 252.57744677 C39.73559063 270.15832372 39.74663479 287.73919359 39.75067699 305.32008016 C39.75340432 316.14509636 39.7619788 326.97007405 39.77833293 337.79507838 C39.78900636 345.24508113 39.79207755 352.69506433 39.78950275 360.14507414 C39.78823734 364.4261803 39.79000302 368.70721977 39.80091095 372.98831367 C39.98996545 451.27020199 25.76403635 520.96095109 -29.4375 579.1875 C-30.1490625 579.94160156 -30.860625 580.69570312 -31.59375 581.47265625 C-35.91676666 585.92855252 -40.56870881 589.84803573 -45.40625 593.734375 C-48.85449266 596.52496313 -52.24360042 599.37912273 -55.625 602.25 C-56.20209717 602.73960205 -56.77919434 603.2292041 -57.3737793 603.73364258 C-58.72899851 604.8841683 -60.08334853 606.03571775 -61.4375 607.1875 C-20.77834114 646.74776267 38.31438699 662.16138272 93.5625 664.1875 C94.65046875 664.23003906 95.7384375 664.27257813 96.859375 664.31640625 C133.33580478 664.99693666 175.03446658 659.53084198 207.84765625 642.48046875 C210.5625 641.1875 210.5625 641.1875 214.5625 641.1875 C216.04223633 642.70043945 216.04223633 642.70043945 217.39453125 644.80078125 C217.88244141 645.55423828 218.37035156 646.30769531 218.87304688 647.08398438 C219.36869141 647.88126953 219.86433594 648.67855469 220.375 649.5 C221.1474707 650.67852539 221.1474707 650.67852539 221.93554688 651.88085938 C224.71512469 656.25301993 224.71512469 656.25301993 225.5625 658.1875 C224.1986007 662.2791979 221.49863551 663.3295325 217.9375 665.375 C217.25800293 665.77082275 216.57850586 666.16664551 215.87841797 666.57446289 C214.46171245 667.39413524 213.04189876 668.20845726 211.61914062 669.01757812 C209.77515591 670.06653049 207.94154422 671.13366876 206.109375 672.203125 C170.99507556 691.92485482 130.20140432 700.71233571 90.5625 705.1875 C89.66015625 705.2920752 88.7578125 705.39665039 87.828125 705.50439453 C77.40197973 706.54663616 66.90483645 706.43131202 56.4375 706.4375 C54.89965851 706.43851212 54.89965851 706.43851212 53.33074951 706.43954468 C37.5475693 706.42305861 22.14406872 705.93167662 6.5625 703.1875 C5.57314453 703.01589355 4.58378906 702.84428711 3.56445312 702.66748047 C-51.22153445 692.84917168 -103.75121296 668.52805677 -144.4375 630.1875 C-145.68383324 629.12070119 -146.93384189 628.05818127 -148.1875 627 C-157.28773909 619.04421288 -165.81822393 610.36820602 -173.3046875 600.87890625 C-175.56992289 598.02039493 -177.93656787 595.26695545 -180.3125 592.5 C-201.9096576 566.5633826 -217.79449002 535.68627992 -229.4375 504.1875 C-229.76588867 503.3094873 -230.09427734 502.43147461 -230.43261719 501.52685547 C-256.10340682 432.01185931 -256.43330842 348.65969105 -226 280.6875 C-224.51949711 277.50039498 -222.98779643 274.34113979 -221.4375 271.1875 C-221.07108398 270.42630859 -220.70466797 269.66511719 -220.32714844 268.88085938 C-210.82050081 249.26872018 -198.45894386 230.86097707 -184.4375 214.1875 C-183.94217773 213.59211426 -183.44685547 212.99672852 -182.93652344 212.38330078 C-176.82259768 205.06142765 -170.46304283 198.02815058 -163.75 191.25 C-163.14953857 190.64027344 -162.54907715 190.03054688 -161.93041992 189.40234375 C-157.68433242 185.1875 -157.68433242 185.1875 -155.4375 185.1875 C-155.43511165 186.40612763 -155.43272329 187.62475527 -155.43026257 188.88031101 C-155.37263009 217.95112104 -155.29970988 247.02186152 -155.20851372 276.0925842 C-155.1972485 279.6877804 -155.18610957 283.28297699 -155.17504883 286.87817383 C-155.17284514 287.59377098 -155.17064146 288.30936813 -155.168371 289.04665004 C-155.13320913 300.56197959 -155.10822676 312.07730909 -155.08715298 323.59267206 C-155.0652211 335.45008409 -155.03201025 347.3074278 -154.98879844 359.16478151 C-154.96490205 365.80734185 -154.946206 372.4498476 -154.93988609 379.09245491 C-154.87080908 443.12290033 -151.99477346 506.91775558 -107.4375 557.1875 C-73.04545001 525.40337797 -61.54732238 468.56127574 -59.4375 424.1875 C-59.26284896 418.30041391 -59.28257946 412.41027414 -59.27928162 406.52114868 C-59.2747057 404.77252383 -59.2697042 403.02390004 -59.26431805 401.2752775 C-59.25084466 396.50684817 -59.24335023 391.7384259 -59.23689139 386.96998262 C-59.2288395 381.81407129 -59.21515844 376.65817442 -59.20217896 371.50227356 C-59.18048371 362.58145224 -59.16231403 353.66062942 -59.14657402 344.73979568 C-59.12381177 331.8419429 -59.09567795 318.94410618 -59.06625474 306.04626708 C-59.01865648 285.11776589 -58.97537139 264.18925812 -58.93481445 243.26074219 C-58.89541992 222.93684375 -58.85398427 202.61295115 -58.80981445 182.2890625 C-58.80572804 180.40829199 -58.80572804 180.40829199 -58.80155908 178.48952611 C-58.78787895 172.19902092 -58.77415881 165.90851582 -58.76041877 159.61801076 C-58.64657608 107.47451938 -58.53973988 55.33101533 -58.4375 3.1875 C-55.91237138 2.86546615 -53.38704218 2.54516711 -50.86157227 2.22583008 C-50.15529945 2.13557808 -49.44902664 2.04532608 -48.72135162 1.95233917 C-32.51224829 -0.09132482 -16.31311202 -0.01424496 0 0 Z " fill="#FFFFFF" transform="translate(1145.4375,583.8125)"/>
<path d="M0 0 C55.77 0 111.54 0 169 0 C169 16.83 169 33.66 169 51 C113.23 51 57.46 51 0 51 C0 34.17 0 17.34 0 0 Z " fill="#FFFFFF" transform="translate(919,498)"/>
</svg>
