<?xml version="1.0" encoding="UTF-8"?>
<svg version="1.1" xmlns="http://www.w3.org/2000/svg" width="450" height="316">
<path d="M0 0 C148.5 0 297 0 450 0 C450 104.28 450 208.56 450 316 C301.5 316 153 316 0 316 C0 211.72 0 107.44 0 0 Z " fill="#1D1D1D" transform="translate(0,0)"/>
<path d="M0 0 C36.3 0 72.6 0 110 0 C108.35 4.62 106.7 9.24 105 14 C103.29533168 34.4560199 112.73195544 52.71688805 121.34353638 70.65362549 C122.9438845 73.98709636 124.53378681 77.32551623 126.12428284 80.66369629 C126.93290656 82.36078801 127.74201706 84.05764789 128.55162048 85.75427246 C132.09859468 93.19121676 135.58950808 100.65328337 139.0625 108.125 C144.16992285 119.10164843 149.32348831 130.05576792 154.5 141 C160.4462733 153.57178156 166.36078 166.15765478 172.22314453 178.76879883 C174.74322202 184.1852231 177.27490457 189.59426477 179.8671875 194.9765625 C180.29580078 195.86851318 180.72441406 196.76046387 181.16601562 197.67944336 C181.94339775 199.29213452 182.72556386 200.90253302 183.51367188 202.51000977 C186 207.66962154 186 207.66962154 186 211 C186.66 211 187.32 211 188 211 C188.17400833 210.44307968 188.34801666 209.88615936 188.52729797 209.31236267 C190.23262211 204.00773815 192.2430991 199.01590518 194.66796875 194.00390625 C195.19540932 192.89700691 195.19540932 192.89700691 195.73350525 191.76774597 C196.88015981 189.36373111 198.03388996 186.96318372 199.1875 184.5625 C199.99849211 182.86454808 200.80886665 181.16630105 201.61865234 179.46777344 C202.86170318 176.86071981 204.10514518 174.25386075 205.3505249 171.6479187 C209.30912746 163.36442095 213.22197297 155.05979245 217.125 146.75 C218.10840014 144.65783147 219.09198967 142.56575205 220.07559204 140.47367859 C220.72978118 139.08220401 221.38389522 137.69069412 222.03793335 136.29914856 C224.38802607 131.29950887 226.74208634 126.30174863 229.09765625 121.3046875 C236.96081281 104.62144152 244.79871798 87.92743812 252.52587891 71.18066406 C253.96739543 68.07034983 255.42537336 64.96822553 256.88671875 61.8671875 C261.473508 52.06571906 265.62780295 42.60774908 268 32 C268.18949219 31.16984375 268.37898438 30.3396875 268.57421875 29.484375 C270.41773698 18.72769984 267.95951212 9.89878031 264 0 C300.63 0 337.26 0 375 0 C373.02 2.97 371.04 5.94 369 9 C356.82185141 27.75158107 347.56952127 48.39272423 338.24047852 68.66625977 C333.47185417 79.02539113 328.58999974 89.32862881 323.6875 99.625 C317.70432407 112.19673573 311.73578101 124.77492039 305.8125 137.375 C305.48775696 138.06573608 305.16301392 138.75647217 304.82843018 139.46813965 C303.2008848 142.93035231 301.57390183 146.39282885 299.94726562 149.85546875 C296.65507424 156.86326323 293.35894187 163.86920416 290.0625 170.875 C289.73350708 171.57423584 289.40451416 172.27347168 289.06555176 172.99389648 C283.90639224 183.95829346 278.73719964 194.91792957 273.5625 205.875 C273.0375293 206.98681641 273.0375293 206.98681641 272.50195312 208.12109375 C268.88189016 215.78789376 265.25981276 223.45372417 261.62953186 231.11569214 C260.13201791 234.27676656 258.63576777 237.43843845 257.13961792 240.60015869 C256.4425919 242.0722571 255.74497859 243.54407762 255.04666138 245.01556396 C249.22474825 257.2838668 243.62077171 269.63430225 238 282 C204.34 282 170.68 282 136 282 C131.71 272.76 127.42 263.52 123 254 C120.4203238 248.52822257 117.8403963 243.05727735 115.24264526 237.59417725 C113.34132596 233.59533018 111.44431069 229.5944409 109.546875 225.59375 C109.16413925 224.78694794 108.7814035 223.98014587 108.3870697 223.14889526 C104.55384026 215.06544727 100.74340289 206.97134183 96.9375 198.875 C91.46974455 187.24458928 85.99031632 175.61977817 80.5 164 C74.6587939 151.63712991 68.82941793 139.26876728 63.01025391 126.89550781 C57.14530726 114.42563111 51.26423851 101.96341972 45.37524414 89.50488281 C41.7905205 81.91957479 38.21386718 74.33060672 34.65234375 66.734375 C33.93752219 65.21092709 33.2226787 63.68748947 32.5078125 62.1640625 C31.17881047 59.33174282 29.85231211 56.4982709 28.52734375 53.6640625 C17.18073529 29.11445473 17.18073529 29.11445473 2.89477539 6.23754883 C0 2.20152207 0 2.20152207 0 0 Z " fill="#DAC281" transform="translate(38,17)"/>
<path d="M0 0 C30.46952822 17.41115898 43.80747496 55.3705899 57.77905273 85.70556641 C62.38809232 95.71170205 67.08806368 105.6728768 71.8125 115.625 C73.35830411 118.88270284 74.90383789 122.14053385 76.44921875 125.3984375 C76.83124954 126.20375916 77.21328033 127.00908081 77.60688782 127.83880615 C83.11125182 139.44647847 88.57332152 151.07406699 94.03778076 162.70056152 C96.38795189 167.70028491 98.74205289 172.69814651 101.09765625 177.6953125 C107.22543351 190.69740565 113.33912261 203.70490057 119.375 216.75 C124.4606156 227.73722467 129.62451232 238.68584365 134.8125 249.625 C135.57613057 251.23622775 136.3397211 252.84747448 137.10327148 254.45874023 C140.55222889 261.73540674 144.00422247 269.01058851 147.46607971 276.28112793 C148.94288813 279.38545206 150.41545935 282.49177343 151.88705444 285.59857178 C152.57789291 287.05458895 153.27057033 288.50973526 153.96524048 289.96392822 C154.92822901 291.98022875 155.88470367 293.99950353 156.83984375 296.01953125 C157.37988037 297.15495361 157.91991699 298.29037598 158.47631836 299.46020508 C160.23319079 303.54174544 161.5948106 307.7844318 163 312 C109.21 312 55.42 312 0 312 C0 209.04 0 106.08 0 0 Z " fill="#FEFEFE" transform="translate(0,4)"/>
<path d="M0 0 C0 102.96 0 205.92 0 312 C-53.79 312 -107.58 312 -163 312 C-161.10773897 306.32321691 -159.46847709 301.5611919 -156.8828125 296.32421875 C-156.5897522 295.72566071 -156.29669189 295.12710266 -155.99475098 294.51040649 C-155.36822886 293.23159646 -154.73933283 291.95394706 -154.10821533 290.67739868 C-152.40294604 287.22615764 -150.71774373 283.76513219 -149.03125 280.3046875 C-148.6882486 279.60175064 -148.34524719 278.89881378 -147.99185181 278.17457581 C-144.78662062 271.59205597 -141.69070659 264.96109638 -138.625 258.3125 C-133.69903794 247.64098255 -128.71287583 236.99998746 -123.6875 226.375 C-122.96182854 224.84041537 -122.23616124 223.30582878 -121.51049805 221.77124023 C-120.41873435 219.46250659 -119.32695662 217.1537796 -118.23506165 214.84510803 C-114.45916877 206.85979404 -110.69713885 198.8679767 -106.9375 190.875 C-106.60954437 190.17783875 -106.28158875 189.48067749 -105.94369507 188.76239014 C-104.29028169 185.24758559 -102.63702984 181.7327051 -100.98388672 178.21777344 C-97.99044954 171.85333183 -94.99538037 165.48965823 -92.00045776 159.12591553 C-91.00160735 157.00341552 -90.00286256 154.88086584 -89.00415039 152.75830078 C-85.98685411 146.34577921 -82.96903133 139.93350786 -79.94869995 133.52241516 C-78.25713765 129.93176503 -76.56605108 126.34089092 -74.875 122.75 C-74.54244202 122.04396637 -74.20988403 121.33793274 -73.86724854 120.61050415 C-70.35480267 113.15224484 -66.85017443 105.69055332 -63.375 98.21484375 C-17.71805911 -0 -17.71805911 -0 0 0 Z " fill="#FEFEFE" transform="translate(450,4)"/>
<path d="M0 0 C28.38 0 56.76 0 86 0 C86 1.32 86 2.64 86 4 C86.72316406 4.24621094 87.44632812 4.49242187 88.19140625 4.74609375 C97.52427693 8.91278567 104.70526698 18.1588614 108.375 27.5 C110.68904589 40.45865696 106.70167563 52.75603925 101.34375 64.47265625 C100.9933667 65.24943726 100.6429834 66.02621826 100.28198242 66.82653809 C96.94825365 74.18644276 93.51541281 81.49967251 90.04708862 88.79693604 C88.9559405 91.09270074 87.86743107 93.38970145 86.77954102 95.68701172 C85.64083858 98.09161819 84.50201943 100.49616816 83.36244202 102.90036011 C79.53870149 110.96799065 75.73636593 119.04563378 71.9375 127.125 C70.62896193 129.90757827 69.32035132 132.69012242 68.01171875 135.47265625 C67.52507248 136.50751411 67.52507248 136.50751411 67.02859497 137.5632782 C64.92046811 142.04547175 62.80961836 146.52637417 60.69703674 151.00646973 C59.23310052 154.11108113 57.76987162 157.21602568 56.30667114 160.32098389 C55.61258125 161.79335654 54.91815408 163.26557025 54.22335815 164.73760986 C50.73689397 172.12458987 47.27480804 179.51590586 44 187 C43.34 187 42.68 187 42 187 C23.9296875 148.60058594 23.9296875 148.60058594 22.92755127 146.47103882 C22.26801321 145.06952553 21.60846732 143.66801592 20.94891357 142.26651001 C19.30332319 138.76971965 17.65787251 135.27286368 16.01269531 131.77587891 C12.63127896 124.5887404 9.2474709 117.40274234 5.859375 110.21875 C2.83850875 103.81328581 -0.1759672 97.40485363 -3.184021 90.99336243 C-5.00680895 87.1094134 -6.83729482 83.22924609 -8.67510986 79.35238647 C-10.04021559 76.46729047 -11.39418448 73.57697067 -12.75 70.6875 C-13.22727539 69.6871875 -13.70455078 68.686875 -14.19628906 67.65625 C-20.24107629 54.70126133 -25.99289721 39.82032376 -21.5625 25.5625 C-17.97897623 16.52138348 -10.34123939 8.92073115 -2 4 C-1.34 4 -0.68 4 0 4 C0 2.68 0 1.36 0 0 Z " fill="#FEFEFE" transform="translate(182,0)"/>
</svg>
