<svg version="1.2" xmlns="http://www.w3.org/2000/svg" viewBox="0 0 1533 293" width="1533" height="293">
	<title>SiriusXM-Pulse-onW-7117CB-Fade-svg</title>
	<style>
		.s0 { fill: #7117cb } 
		.s1 { fill: #000000 } 
	</style>
	<g id="Layer">
		<g id="Layer">
			<g id="Layer">
				<g id="Layer">
					<g id="Layer">
						<g id="Layer">
							<g id="Layer">
								<path id="emKpR5cAtjq9" class="s0" d="m1466.7 22.9c24.9 36.4 38.1 79.1 38.1 123.5 0 44.5-13.2 87.2-38.3 123.6-4.4 6.4-2.7 15.1 3.7 19.6 6.3 4.4 15.1 2.8 19.3-3.7 28.3-41.2 43.2-89.5 43.2-139.5 0-50.1-14.9-98.2-43-139.4-4.3-6.4-13-7.9-19.5-3.7-6.2 4.5-7.8 13.2-3.5 19.6z"/>
								<path id="emKpR5cAtjq10" class="s0" d="m1422.4 251.1c6.2 4.6 14.9 3.3 19.7-2.9 22-29.4 33.8-64.5 33.8-101.5 0-37.4-11.9-72.6-34.3-102.2-4.6-6.2-13.5-7.3-19.7-2.7-6.2 4.8-7.3 13.5-2.7 19.7 18.8 24.8 28.8 54.2 28.8 85.4 0 30.8-9.7 60-28.3 84.7-4.8 6-3.5 14.9 2.7 19.5z"/>
								<path id="emKpR5cAtjq11" class="s0" d="m1372.6 216.8c6 4.9 14.9 3.8 19.6-2.2 15.6-19.4 24.2-43.9 24.2-68.9 0-24.8-8.1-48.1-23.2-67.5-4.8-6.2-13.7-7.2-19.7-2.4-6 4.8-7.1 13.5-2.4 19.7 11.3 14.5 17.3 32 17.3 50.4 0 18.9-6.2 36.6-17.9 51.2-4.9 6-4 14.9 2.1 19.7z"/>
							</g>
							<g id="Layer">
								<path id="emKpR5cAtjq13" class="s0" d="m66.3 270c-25.1-36.4-38.3-79.3-38.3-123.6 0-44.4 13.2-87.1 38.1-123.5 4.3-6.4 2.7-15.1-3.6-19.6-6.4-4.4-15.1-2.7-19.4 3.7-28.1 41.2-43 89.3-43 139.4 0 50.2 14.9 98.3 43.2 139.5 4.4 6.4 13.1 8 19.5 3.7 6.3-4.5 7.9-13.2 3.5-19.6 0 0 4.4 6.4 0 0 0 0 4.4 6.4 0 0z"/>
								<path id="emKpR5cAtjq14" class="s0" d="m113.7 61.5c4.7-6.2 3.5-14.9-2.7-19.7-6.1-4.6-14.9-3.5-19.6 2.7-22.6 29.6-34.3 65-34.3 102.2 0 37 11.7 72.1 33.8 101.5 4.6 6.2 13.5 7.5 19.5 2.9 6.2-4.6 7.5-13.5 2.7-19.5-18.4-24.7-28.2-53.9-28.2-84.7 0.1-31.2 10-60.8 28.8-85.4z"/>
								<path id="emKpR5cAtjq15" class="s0" d="m116.4 145.9c0 25 8.6 49.4 24.2 68.8 4.9 6.1 13.6 7 19.7 2.2 6-4.9 6.9-13.6 2-19.7-11.7-14.6-17.9-32.4-17.9-51.1 0-18.5 6-36 17.3-50.4 4.7-6.1 3.6-15-2.4-19.7-6-4.8-14.9-3.7-19.7 2.4-15.2 19.3-23.2 42.7-23.2 67.5 0 0 0-24.8 0 0 0 0 0-24.8 0 0z"/>
							</g>
						</g>
						<g id="Layer">
							<path id="Layer" class="s1" d="m251.5 177c0 6.6 2.6 11.5 6.8 14.8 4 3 9.6 5 15.8 5 9.8 0 20.3-3.1 20.3-14.5 0-25.9-99.1-5.3-99.1-68 0-41.5 42.9-53.4 76.5-53.4 35.3 0 76.5 8.1 80.3 51h-58.2c-0.6-5.3-2.9-8.9-6.2-11.8-3.3-2.8-8.1-3.9-13-3.9-11.1 0-18.3 3.3-18.3 11.4 0 22.6 102.1 7.5 102.1 68 0 33.7-27.8 56.6-87 56.6-37 0-77.8-11.4-81.1-55h61.1z"/>
							<path id="Layer" class="s1" d="m369.3 61h52v25h-52zm0 35.6h52v131.6h-52z"/>
							<path id="Layer" class="s1" d="m435.3 96.8h47.5v26.5h0.5c7.3-20.5 19.9-30.3 40.3-30.3 2.2 0 4.4 0.5 6.8 0.8v52.1c-3.5-0.5-7.3-1.4-10.8-1.4-21.3 0-32.1 10-32.1 38.4v45.5h-52.2z"/>
							<path id="Layer" class="s1" d="m541.3 61h52.3v25h-52.3zm0 35.6h52.3v131.6h-52.3z"/>
							<path id="Layer" class="s1" d="m749.1 228.2h-48.4v-19.4c-13 18.1-25.9 23.1-47.3 23.1-28.6 0-47.1-17.5-47.1-55.2v-80.1h52v71.1c0 18.1 6.4 23.8 18.7 23.8 15.1 0 19.9-11.3 19.9-31.6v-63.3h52v131.6z"/>
							<path id="Layer" class="s1" d="m804.3 187.4c0 5.2 2.1 9.2 5.6 12.1 3.3 2.5 7.8 3.9 12.9 3.9 8 0 16.5-2.5 16.5-11.7 0-21.2-80.5-4.3-80.5-55.2 0-33.7 34.9-43.4 62.2-43.4 28.6 0 62.2 6.6 65.2 41.5h-47.3c-0.4-4.3-2.2-7.3-5-9.5-2.7-2.2-6.5-3.2-10.5-3.2-9.1 0-14.8 2.7-14.8 9.2 0 18.3 83 6.1 83 55.2 0 27.3-22.5 45.9-70.6 45.9-30.1 0-63.2-9.2-65.9-44.7h49.2z"/>
							<path id="Layer" class="s1" d="m942 142.7l-53.4-77.2h71.3l20.3 40.5 21.6-40.5h70.3l-55.2 76.9 55.8 85h-71.5l-22.9-46.4-23.5 46.4h-70.9z"/>
							<path id="Layer" class="s1" d="m1076.9 65.5h58.9v24.1c8-12.4 22.5-28.7 45.7-28.7 26.8 0 43 12.4 50.6 29.5 14-19.4 26-29.5 49.5-29.5 40.7 0 60.8 26.5 60.8 70.7v95.8h-64.1v-82.5c0-23.8-1.6-33.3-18.6-33.3-18.1 0-17.9 16.3-17.9 35.7v80.1h-64.1v-82.5c0-23.8-1.5-32.9-18.6-33.3-17.6-0.5-18.1 16.3-18.1 35.7v80.1h-64.1z"/>
						</g>
					</g>
					<g id="Layer">
						<path id="Layer" fill-rule="evenodd" class="s1" d="m1357.3 53.7v0.2c0 9.4-7.8 17.1-17.3 17.1-9.3 0-17.1-7.6-17.1-17.1v-0.2c0-9.5 7.8-17.3 17.3-17.3 9.3 0 17.1 7.8 17.1 17.3zm-2.4 0v-0.1c0-8.5-6.5-15-14.7-15-8.4 0-14.9 6.5-14.9 15v0.1c0 8.4 6.5 15 14.7 15 8.4 0 14.9-6.6 14.9-15z"/>
						<path id="Layer" fill-rule="evenodd" class="s1" d="m1343.8 55.5l4.8 6.6h-4l-4.3-6.1h-3.8v6.1h-3.3v-17.8h7.9c2.4 0 4.2 0.7 5.4 2q1.5 1.4 1.5 3.8c0 2.8-1.8 4.6-4.2 5.4zm0.7-5.3v-0.1c0-1.8-1.3-2.7-3.5-2.7h-4.5v5.5h4.5c2.2 0 3.5-0.9 3.5-2.7z"/>
					</g>
				</g>
			</g>
		</g>
	</g>
</svg>